<svg width="820" height="820" viewBox="0 0 820 820" fill="none" xmlns="http://www.w3.org/2000/svg">
<rect width="820" height="820" rx="30" fill="white"/>
<line x1="506" y1="76" x2="506" y2="208" stroke="black" stroke-width="8" stroke-linecap="round"/>
<line x1="520" y1="76" x2="520" y2="208" stroke="black" stroke-width="8" stroke-linecap="round"/>
<line x1="474" y1="76" x2="474" y2="208" stroke="black" stroke-width="8" stroke-linecap="round"/>
<line x1="460" y1="76" x2="460" y2="208" stroke="black" stroke-width="8" stroke-linecap="round"/>
<line x1="460" y1="394" x2="460" y2="526" stroke="black" stroke-width="8" stroke-linecap="round"/>
<line x1="474" y1="394" x2="474" y2="526" stroke="black" stroke-width="8" stroke-linecap="round"/>
<line x1="428" y1="394" x2="428" y2="526" stroke="black" stroke-width="8" stroke-linecap="round"/>
<line x1="414" y1="394" x2="414" y2="526" stroke="black" stroke-width="8" stroke-linecap="round"/>
<line x1="428" y1="76" x2="428" y2="208" stroke="black" stroke-width="8" stroke-linecap="round"/>
<line x1="414" y1="76" x2="414" y2="208" stroke="black" stroke-width="8" stroke-linecap="round"/>
<line x1="382" y1="76" x2="382" y2="708" stroke="black" stroke-width="8" stroke-linecap="round"/>
<line x1="369" y1="76" x2="369" y2="708" stroke="black" stroke-width="8" stroke-linecap="round"/>
<line x1="337" y1="76" x2="337" y2="708" stroke="black" stroke-width="8" stroke-linecap="round"/>
<line x1="324" y1="76" x2="324" y2="708" stroke="black" stroke-width="8" stroke-linecap="round"/>
<line x1="292" y1="76" x2="292" y2="708" stroke="black" stroke-width="8" stroke-linecap="round"/>
<line x1="279" y1="76" x2="279" y2="708" stroke="black" stroke-width="8" stroke-linecap="round"/>
<line x1="271" y1="68.5" x2="528" y2="68.5" stroke="black"/>
<line x1="390" y1="215.5" x2="528" y2="215.5" stroke="black"/>
<line x1="389.5" y1="215" x2="389.5" y2="387" stroke="black"/>
<line x1="482" y1="386.5" x2="390" y2="386.5" stroke="black"/>
<line x1="481.5" y1="386" x2="481.5" y2="534" stroke="black"/>
<line x1="390" y1="533.5" x2="482" y2="533.5" stroke="black"/>
<line x1="389.5" y1="533" x2="389.5" y2="715" stroke="black"/>
<line x1="271" y1="714.5" x2="390" y2="714.5" stroke="black"/>
<line x1="271.5" y1="715" x2="271.5" y2="68" stroke="black"/>
<line x1="527.5" y1="216" x2="527.5" y2="68" stroke="black"/>
</svg>
